<svg xmlns="http://www.w3.org/2000/svg" version="1.1" xmlns:xlink="http://www.w3.org/1999/xlink" xmlns:svgjs="http://svgjs.dev/svgjs" width="100%" height="100%" viewBox="0 0 1000 600"><rect width="1000" height="600" x="0" y="0" fill="#aff022"/><g><rect width="333.3333333333333" height="333.3333333333333" rx="13.333333333333334" ry="13.333333333333334" y="122.9050256542196" fill="#1e765a" transform="matrix(1.241523178687512,0,0,1.241523178687512,0,-59.50995327967122)" x="100.68280029296875"/><path d="M237.18365312969695 364.57169589343107L237.18365312969695 364.57169589343107Q215.75508327668066 364.57169589343107 200.91664899354043 355.3880230992812Q186.07821471040015 346.20435030513136 178.55270505963847 329.66523587492634Q171.0697124125534 313.1686384483979 171.0697124125534 290.804694514496L171.0697124125534 290.804694514496Q171.0697124125534 274.5631991100273 175.1938617691855 260.6601389077727Q179.31801112581763 246.71456170184143 187.60882684275845 236.4679638157761Q195.85712555602265 226.22136592971077 209.03739669577476 220.39653642601388Q222.17515083185026 214.571706922317 239.94725836867724 214.571706922317L239.94725836867724 214.571706922317Q254.615624637111 214.571706922317 266.09521562979836 218.56830526791924Q277.57480662248565 222.5223866098449 284.3350102070682 229.87782824590005Q291.05269678797407 237.23326988195527 291.05269678797407 247.9475548084634L291.05269678797407 247.9475548084634Q291.05269678797407 255.60061547025498 287.0986154460485 260.36251988203634Q283.1020171004462 265.08190729014115 275.15133741291834 265.08190729014115L275.15133741291834 265.08190729014115Q267.4982767511268 265.08190729014115 263.50167840552456 260.7876899188025Q259.5475970635989 256.5359895511406 259.5475970635989 250.0734049922944L259.5475970635989 250.0734049922944Q259.5475970635989 245.18394956948316 261.20576020698707 242.42034433050287Q262.9064403540519 239.69925609519922 264.56460349744003 237.82850793342794Q266.26528364450485 236.0002767753333 266.26528364450485 233.576807565766L266.26528364450485 233.576807565766Q266.26528364450485 229.28259019442737 259.9727671003651 226.6890529701536Q253.72276755990202 224.0529987422032 243.90133971060288 224.0529987422032L243.90133971060288 224.0529987422032Q231.06120460026375 224.0529987422032 221.11222573993473 229.7502772348702Q211.16324687960577 235.40503872386063 205.50848539061533 249.18054791508536Q199.8537239016249 262.95605710631014 199.8537239016249 287.4458512240431L199.8537239016249 287.4458512240431Q199.8537239016249 310.70265223515406 205.210866364879 325.07339947785147Q210.5680088281331 339.48666372422554 220.51698768846205 345.9067312793951Q230.46596654879107 352.32679883456467 243.90133971060288 352.32679883456467L243.90133971060288 352.32679883456467Q257.67684890182767 352.32679883456467 266.09521562979836 347.43734341175343Q274.51358235776905 342.5478879889421 279.105418754844 335.9577524190661Q283.69725515191885 329.36761684919 285.56800331369016 325.07339947785147L285.56800331369016 325.07339947785147L292.8809279460687 329.36761684919Q291.69045184312336 333.36421519479234 288.2890915489938 339.18904469848917Q284.9302482585408 344.9713571985094 278.68024871807773 350.79618670220634Q272.38773217393805 356.6210162059032 262.2686852989026 360.6176145515054Q252.1921554275437 364.57169589343107 237.18365312969695 364.57169589343107ZM346.4523525786095 363.97645784195845L346.4523525786095 363.97645784195845Q339.4370469719673 363.97645784195845 334.3775235344495 358.91693440444067Q329.31800009693177 353.857410966923 329.31800009693177 346.8421053602807L329.31800009693177 346.8421053602807Q329.31800009693177 339.7842827499619 334.3775235344495 334.7247593124441Q339.4370469719673 329.66523587492634 346.4523525786095 329.66523587492634L346.4523525786095 329.66523587492634Q353.5101751889284 329.66523587492634 358.5696986264461 334.7247593124441Q363.6292220639638 339.7842827499619 363.6292220639638 346.8421053602807L363.6292220639638 346.8421053602807Q363.6292220639638 353.857410966923 358.5696986264461 358.91693440444067Q353.5101751889284 363.97645784195845 346.4523525786095 363.97645784195845Z " fill="#aff022" transform="matrix(1.241523178687512,0,0,1.241523178687512,0,-59.50995327967122)"/><path d="M593.5794827205196 362.5476137393365L581.0301786909024 362.5476137393365L535.5039194072783 233.41122711198412Q533.6978160978048 228.24203488142214 531.7982936516344 225.56401962944426Q529.8987712054641 222.85486466523406 526.6602411333047 221.98295272272964Q523.3905713489132 221.07990106799292 517.3494671758467 221.07990106799292L517.3494671758467 221.07990106799292L517.3494671758467 214.571701211442L571.158889913263 214.571701211442L571.158889913263 221.07990106799292L560.1665714952607 221.07990106799292Q556.36752660292 221.07990106799292 555.4644749481832 222.97942351416327Q554.5614232934465 224.87894596033362 555.9004309194354 228.92710855053278L555.9004309194354 228.92710855053278L593.3615047348935 337.19988798224347L594.0154386917719 337.4490056801019L631.2273948093716 229.36306452178496Q632.3484244497345 225.09692394595976 631.6944904928562 223.10398236309248Q631.0094168237455 221.07990106799292 626.7432762479202 221.07990106799292L626.7432762479202 221.07990106799292L616.0000755277764 221.07990106799292L616.0000755277764 214.571701211442L658.8171798471903 214.571701211442L658.8171798471903 221.07990106799292Q651.1879503502767 221.07990106799292 647.8248614291881 223.3219603487186Q644.4617725080996 225.56401962944426 641.7837572561217 232.7261534428735L641.7837572561217 232.7261534428735L593.5794827205196 362.5476137393365ZM692.2300910724493 364.57169503443606L692.2300910724493 364.57169503443606Q687.0608988418874 364.57169503443606 683.3552730862435 360.8660692787922Q679.680787042832 357.1604435231484 679.680787042832 352.0223910048187L679.680787042832 352.0223910048187Q679.680787042832 346.8531987742567 683.3552730862435 343.1475730186129Q687.0608988418874 339.44194726296917 692.2300910724493 339.44194726296917L692.2300910724493 339.44194726296917Q697.368143590779 339.44194726296917 701.0737693464229 343.1475730186129Q704.7793951020667 346.8531987742567 704.7793951020667 352.0223910048187L704.7793951020667 352.0223910048187Q704.7793951020667 357.1604435231484 701.0737693464229 360.8660692787922Q697.368143590779 364.57169503443606 692.2300910724493 364.57169503443606Z " fill="#1e765a" transform="matrix(1.241523178687512,0,0,1.241523178687512,0,-59.50995327967122)"/></g></svg>